/* XPM */
static char *bitcoin___[] = {
/* columns rows colors chars-per-pixel */
"128 128 25 1 ",
"  c None",
". c black",
"X c #010101",
"o c #020202",
"O c gray1",
"+ c #040404",
"@ c gray2",
"# c #060606",
"$ c #070707",
"% c gray3",
"& c #090909",
"* c gray4",
"= c #0B0B0B",
"- c #0C0C0C",
"; c gray5",
": c #0E0E0E",
"> c gray6",
", c #101010",
"< c #111111",
"1 c gray7",
"2 c #131313",
"3 c gray8",
"4 c gray9",
"5 c #181818",
"6 c gray10",
/* pixels */
"                                                                                                                                ",
"                                                                                                                                ",
"                                                                                                                                ",
"                                                                                                                                ",
"                                                                                                                                ",
"                                                                                                                                ",
"                                                                                                                                ",
"                                                                 &$;                                                            ",
"                                                            $X   &XX$                                                           ",
"                                                          $XXX   $XXXX$                                                         ",
"                                                        &XXXXX   &XXXXXX$                                                       ",
"                                                      &XXXXXXX   $XXXXXXXX&                                                     ",
"                                                    &XXXXXXXXX   $XXXXXXXXXX&                                                   ",
"                                                  ;XXXXXXXXXXX   &XXXXXXXXXXXX;                                                 ",
"                                                ;XXXXXXXXXXXXX   &XXXXXXXXXXXXXX&                                               ",
"                                              ;$XXXXXXXXXXXXXX   $XXXXXXXXXXXXXXX$;                                             ",
"                                            ;$XXXXXXXXXXXXXXXX   &XXXXXXXXXXXXXXXXX$&                                           ",
"                                          2$XXXXXXXXXXXXXXXXXX   $XXXXXXXXXXXXXXXXXXX$;                                         ",
"                                         $XXXXXXXXXXXXXXXXXXXX   $XXXXXXXXXXXXXXXXXXXXX$                                        ",
"                                       &XXXXXXXXXXXXXXXXXXXXXX   &XXXXXXXXXXXXXXXXXXXXXXX$                                      ",
"                                      XXXXXXXXXXXXXXXXXXXXXXXX   &XXXXXXXXXXXXXXXXXXXXXXXX;                                     ",
"                                      XXXXXXXXXXXXXXXXXXXXXXXX   $XXXXXXXXXXXXXXXXXXXXXXXX&                                     ",
"                                 ;&   XXXXXXXXXXXXXXXXXXXXXXXX   &XXXXXXXXXXXXXXXXXXXXXXXX;   ;                                 ",
"                               ;XX$   XXXXXXXXXXXXXXXXXXXXXXXX   $XXXXXXXXXXXXXXXXXXXXXXXX;   XX&                               ",
"                             ;$XXX$   XXXXXXXXXXXXXXXXXXXXXXXX   $XXXXXXXXXXXXXXXXXXXXXXXX&   XXXX&                             ",
"                            $XXXXX$   XXXXXXXXXXXXXXXXXXXXXXXX   &XXXXXXXXXXXXXXXXXXXXXXXX;   $XXXXX;                           ",
"                          $XXXXXXX$   XXXXXXXXXXXXXXXXXXXXXXXX   &XXXXXXXXXXXXXXXXXXXXXXXX;   XXXXXXXX;                         ",
"                        $XXXXXXXXX$   XXXXXXXXXXXXXXXXXXXXXXXX   $XXXXXXXXXXXXXXXXXXXXXXXX;   $XXXXXXXX$;                       ",
"                      &XXXXXXXXXXX$   XXXXXXXXXXXXXXXXXXXXXXXX   &XXXXXXXXXXXXXXXXXXXXXXXX;   XXXXXXXXXXX$                      ",
"                    &XXXXXXXXXXXXX$   XXXXXXXXXXXXXXXXXXXXXXXX   $XXXXXXXXXXXXXXXXXXXXXXXX;   XXXXXXXXXXXXX$                    ",
"                  &XXXXXXXXXXXXXXX$   XXXXXXXXXXXXXXXXXXXXXXXX   &XXXXXXXXXXXXXXXXXXXXXXXX&   XXXXXXXXXXXXXXX$                  ",
"                ;XXXXXXXXXXXXXXXXX$   XXXXXXXXXXXXXXXXXXXXXXXX   &XXXXXXXXXXXXXXXXXXXXXXXX;   $XXXXXXXXXXXXXXXX&                ",
"              ;$XXXXXXXXXXXXXXXXXX$   XXXXXXXXXXXXXXXXXXXXXX$;    ;$XXXXXXXXXXXXXXXXXXXXXX;   XXXXXXXXXXXXXXXXXXX$              ",
"            2XXXXXXXXXXXXXXXXXXXXX$   XXXXXXXXXXXXXXXXXXXXX;        &XXXXXXXXXXXXXXXXXXXXX;   $XXXXXXXXXXXXXXXXXXXX&            ",
"          2$XXXXXXXXXXXXXXXXXXXXXX$   XXXXXXXXXXXXXXXXXXX;            ;$XXXXXXXXXXXXXXXXXX&   XXXXXXXXXXXXXXXXXXXXXXX&          ",
"         3XXXXXXXXXXXXXXXXXXXXXXXX$   XXXXXXXXXXXXXXXXX&                ;XXXXXXXXXXXXXXXXX;   XXXXXXXXXXXXXXXXXXXXXXXX$         ",
"         2XXXXXXXXXXXXXXXXXXXXXXXX$   XXXXXXXXXXXXXXX&                    &XXXXXXXXXXXXXXX&   XXXXXXXXXXXXXXXXXXXXXXXXX         ",
"         2XXXXXXXXXXXXXXXXXXXXXXXX$   XXXXXXXXXXXXX&                        &$XXXXXXXXXXXX;   $XXXXXXXXXXXXXXXXXXXXXXXX         ",
"         2XXXXXXXXXXXXXXXXXXXXXXXX$   XXXXXXXXXXX&                            &XXXXXXXXXXX;   XXXXXXXXXXXXXXXXXXXXXXXXX         ",
"         2XXXXXXXXXXXXXXXXXXXXXXXX$   XXXXXXXXX$                                $XXXXXXXXX;   $XXXXXXXXXXXXXXXXXXXXXXXX         ",
"         2XXXXXXXXXXXXXXXXXXXXXXXX$   XXXXXXX$                                    $XXXXXXX&   XXXXXXXXXXXXXXXXXXXXXXXXX         ",
"         2XXXXXXXXXXXXXXXXXXXXXXXX$   XXXXX$                                        $XXXXX;   XXXXXXXXXXXXXXXXXXXXXXXXX         ",
"         2XXXXXXXXXXXXXXXXXXXXXXXX$   XXX$;                                          ;$XXX;   XXXXXXXXXXXXXXXXXXXXXXXXX         ",
"         2XXXXXXXXXXXXXXXXXXXXXXXX$   X$&                                              ;$X&   $XXXXXXXXXXXXXXXXXXXXXXXX         ",
"         2XXXXXXXXXXXXXXXXXXXXXXXX$   ;                                                  22   XXXXXXXXXXXXXXXXXXXXXXXXX         ",
"         2XXXXXXXXXXXXXXXXXXXXXXXX$                                                           XXXXXXXXXXXXXXXXXXXXXXXXX         ",
"         2XXXXXXXXXXXXXXXXXXXXXXXX$                                                           XXXXXXXXXXXXXXXXXXXXXXXXX         ",
"         2XXXXXXXXXXXXXXXXXXXXXXXX;                                                           &XXXXXXXXXXXXXXXXXXXXXXXX         ",
"         2XXXXXXXXXXXXXXXXXXXXXX&                                                               $XXXXXXXXXXXXXXXXXXXXXX         ",
"         2XXXXXXXXXXXXXXXXXXXX&                                                                  ;$XXXXXXXXXXXXXXXXXXXX         ",
"         2XXXXXXXXXXXXXXXXXX$                                                                      ;$XXXXXXXXXXXXXXXXXX         ",
"         2XXXXXXXXXXXXXXXX&      $$                                                           &      &$XXXXXXXXXXXXXXXX         ",
"         2XXXXXXXXXXXXXX&      $XXX                                                           XX$      &XXXXXXXXXXXXXXX         ",
"         2XXXXXXXXXXXX$      $XXXX$                                                           XXXX$      ;XXXXXXXXXXXXX         ",
"         2XXXXXXXXXX$&     &XXXXXX$                                                           XXXXXX$      &XXXXXXXXXXX         ",
"         2XXXXXXXX$&     &XXXXXXXXX                                                           XXXXXXXX$      &XXXXXXXXX         ",
"         2XXXXXXX;     &XXXXXXXXXXX                                                           XXXXXXXXXX$      &XXXXXXX         ",
"         2XXXXX&     ;$XXXXXXXXXXXX                                                           XXXXXXXXXXXX$      $XXXXX         ",
"         2XXX&     ;$XXXXXXXXXXXXX$                                                           XXXXXXXXXXXXXX&      $XXX         ",
"         2X&     ;$XXXXXXXXXXXXXXXX                                                           XXXXXXXXXXXXXXXX&     ;$X         ",
"               2$XXXXXXXXXXXXXXXXXX                                                           XXXXXXXXXXXXXXXXX$&     2         ",
"              $XXXXXXXXXXXXXXXXXXX$                                                           XXXXXXXXXXXXXXXXXXX$              ",
"            &XXXXXXXXXXXXXXXXXXXXXX                                                           XXXXXXXXXXXXXXXXXXXXX&            ",
"          &XXXXXXXXXXXXXXXXXXXXXXXX                                                           XXXXXXXXXXXXXXXXXXXXXXX$          ",
"         6XXXXXXXXXXXXXXXXXXXXXXXXX                                                           XXXXXXXXXXXXXXXXXXXXXXXXX         ",
"         3XXXXXXXXXXXXXXXXXXXXXXXX$                            $$;                            XXXXXXXXXXXXXXXXXXXXXXXXX         ",
"         6XXXXXXXXXXXXXXXXXXXXXXXX$                          &XXXX&2                          XXXXXXXXXXXXXXXXXXXXXXXXX         ",
"         3XXXXXXXXXXXXXXXXXXXXXXXXX                        &XXXXXXXX&                         XXXXXXXXXXXXXXXXXXXXXXXXX         ",
"         6XXXXXXXXXXXXXXXXXXXXXXXXX                      &XXXXXXXXXXXX&                       XXXXXXXXXXXXXXXXXXXXXXXXX         ",
"         6XXXXXXXXXXXXXXXXXXXXXXXXX                    &$XXXXXXXXXXXXXXX&                     XXXXXXXXXXXXXXXXXXXXXXXXX         ",
"         6XXXXXXXXXXXXXXXXXXXXXXXX$                  ;XXXXXXXXXXXXXXXXXXX$&                   XXXXXXXXXXXXXXXXXXXXXXXXX         ",
"         3XXXXXXXXXXXXXXXXXXXXXXXXX                ;$XXXXXXXXXXXXXXXXXXXXXXX;                 XXXXXXXXXXXXXXXXXXXXXXXXX         ",
"         6XXXXXXXXXXXXXXXXXXXXXXXX$              2$XXXXXXXXXXXXXXXXXXXXXXXXXXX;               XXXXXXXXXXXXXXXXXXXXXXXXX         ",
"         6XXXXXXXXXXXXXXXXXXXXXXXXX            2$XXXXXXXXXXXXXXXXXXXXXXXXXXXXXX$;             XXXXXXXXXXXXXXXXXXXXXXXXX         ",
"         6XXXXXXXXXXXXXXXXXXXXXXXXX           $XXXXXXXXXXXXXXXXXXXXXXXXXXXXXXXXXX$2           XXXXXXXXXXXXXXXXXXXXXXXXX         ",
"         3XXXXXXXXXXXXXXXXXXXXXXXX$         &XXXXXXXXXXXXXXXXXXXXXXXXXXXXXXXXXXXXXX$2         XXXXXXXXXXXXXXXXXXXXXXXXX         ",
"         6XXXXXXXXXXXXXXXXXXXXXXX$        &XXXXXXXXXXXXXXXXXXXXXXXXXXXXXXXXXXXXXXXXXX$        &$XXXXXXXXXXXXXXXXXXXXXXX         ",
"         6XXXXXXXXXXXXXXXXXXXXX$        3$XXXXXXXXXXXXXXXXXXXXXXXXXXXXXXXXXXXXXXXXXXXX$2        &XXXXXXXXXXXXXXXXXXXXXX         ",
"         6XXXXXXXXXXXXXXXXXXX$            $XXXXXXXXXXXXXXXXXXXXXXXXXXXXXXXXXXXXXXXXXX$;           &XXXXXXXXXXXXXXXXXXXX         ",
"         3XXXXXXXXXXXXXXXXX$;               $XXXXXXXXXXXXXXXXXXXXXXXXXXXXXXXXXXXXXX$;               $XXXXXXXXXXXXXXXXXX         ",
"         6XXXXXXXXXXXXXXXX;                  ;$XXXXXXXXXXXXXXXXXXXXXXXXXXXXXXXXXXX;                   $XXXXXXXXXXXXXXXX         ",
"         3XXXXXXXXXXXXX$&        &X$&          ;$XXXXXXXXXXXXXXXXXXXXXXXXXXXXXXX;          ;$X$&        $XXXXXXXXXXXXXX         ",
"         6XXXXXXXXXXXX&        &XXXXXX&          ;XXXXXXXXXXXXXXXXXXXXXXXXXXXX;          ;$XXXXX$        ;$XXXXXXXXXXXX         ",
"         6XXXXXXXXXX&        &$XXXXXXXX$;          ;XXXXXXXXXXXXXXXXXXXXXXXX&           $XXXXXXXXX$        ;$XXXXXXXXXX         ",
"         6XXXXXXXX&        ;$XXXXXXXXXXXX$;          &XXXXXXXXXXXXXXXXXXXX$           &XXXXXXXXXXXXX$        ;$XXXXXXXX         ",
"         3XXXXXX&        ;XXXXXXXXXXXXXXXXX$           &XXXXXXXXXXXXXXXX&           &XXXXXXXXXXXXXXXXX$        ;XXXXXXX         ",
"         6XXXX$        2$XXXXXXXXXXXXXXXXXXXX$           &XXXXXXXXXXXX$           $XXXXXXXXXXXXXXXXXXXXX&        ;$XXXX         ",
"         3XX$         $XXXXXXXXXXXXXXXXXXXXXXXX&           $XXXXXXXX$;          &$XXXXXXXXXXXXXXXXXXXXXXXX&        &XXX         ",
"         6$         &XXXXXXXXXXXXXXXXXXXXXXXXXXXX&           $XXXX$;          ;XXXXXXXXXXXXXXXXXXXXXXXXXXXXX;        &$         ",
"                  &XXXXXXXXXXXXXXXXXXXXXXXXXXXXXXXX;          ;$X;          ;XXXXXXXXXXXXXXXXXXXXXXXXXXXXXXXX$;                 ",
"                &XXXXXXXXXXXXXXXXXXXXXXXXXXXXXXXXXXX$;                    ;$XXXXXXXXXXXXXXXXXXXXXXXXXXXXXXXXXXX$;               ",
"              &$XXXXXXXXXXXXXXXXXXXXXXXXXXXXXXXXXXXXXX$;                 $XXXXXXXXXXXXXXXXXXXXXXXXXXXXXXXXXXXXXXX$              ",
"            &XXXXXXXXXXXXXXXXXXXXXXXXXXXXXXXXXXXXXXXXXXX$;             &XXXXXXXXXXXXXXXXXXXXXXXXXXXXXXXXXXXXXXXXXXX$            ",
"           2$XXXXXXXXXXXXXXXXXXXXXXXXXXXXXXXXXXXXXXXXXXXX$6           &XXXXXXXXXXXXXXXXXXXXXXXXXXXXXXXXXXXXXXXXXXXXX&           ",
"             &XXXXXXXXXXXXXXXXXXXXXXXXXXXXXXXXXXXXXXXXX$;              2$XXXXXXXXXXXXXXXXXXXXXXXXXXXXXXXXXXXXXXXXX$;            ",
"               &XXXXXXXXXXXXXXXXXXXXXXXXXXXXXXXXXXXXXX&                  ;$XXXXXXXXXXXXXXXXXXXXXXXXXXXXXXXXXXXXX$;              ",
"                 &XXXXXXXXXXXXXXXXXXXXXXXXXXXXXXXXXX&          ;$;         2$XXXXXXXXXXXXXXXXXXXXXXXXXXXXXXXXX$;                ",
"                   &XXXXXXXXXXXXXXXXXXXXXXXXXXXXXX&          ;XXXX$;         ;XXXXXXXXXXXXXXXXXXXXXXXXXXXXXXX;                  ",
"                    2$XXXXXXXXXXXXXXXXXXXXXXXXXX$          &$XXXXXXX$;         ;XXXXXXXXXXXXXXXXXXXXXXXXXXX;                    ",
"                      ;$XXXXXXXXXXXXXXXXXXXXXX&          ;$XXXXXXXXXXX$          &XXXXXXXXXXXXXXXXXXXXXXX&                      ",
"                        ;$XXXXXXXXXXXXXXXXXX$;          $XXXXXXXXXXXXXXX$          &XXXXXXXXXXXXXXXXXXX&                        ",
"                          ;$XXXXXXXXXXXXXX$;          &XXXXXXXXXXXXXXXXXXX&          &XXXXXXXXXXXXXXX$                          ",
"                            &$XXXXXXXXXX$;          &XXXXXXXXXXXXXXXXXXXXXXX$          $XXXXXXXXXXX$                            ",
"                              &XXXXXXX$;          &XXXXXXXXXXXXXXXXXXXXXXXXXX$&         2$XXXXXXX$2                             ",
"                                &XXXX;          &XXXXXXXXXXXXXXXXXXXXXXXXXXXXXXX;         ;$XXXX;                               ",
"                                  $&          ;XXXXXXXXXXXXXXXXXXXXXXXXXXXXXXXXXX$&         &$;                                 ",
"                                            ;$XXXXXXXXXXXXXXXXXXXXXXXXXXXXXXXXXXXXX$;                                           ",
"                                          ;$XXXXXXXXXXXXXXXXXXXXXXXXXXXXXXXXXXXXXXXXX$2                                         ",
"                                         &XXXXXXXXXXXXXXXXXXXXXXXXXXXXXXXXXXXXXXXXXXXXX&                                        ",
"                                          &XXXXXXXXXXXXXXXXXXXXXXXXXXXXXXXXXXXXXXXXXXX&                                         ",
"                                            &XXXXXXXXXXXXXXXXXXXXXXXXXXXXXXXXXXXXXXX&                                           ",
"                                              $XXXXXXXXXXXXXXXXXXXXXXXXXXXXXXXXXXX&                                             ",
"                                               2$XXXXXXXXXXXXXXXXXXXXXXXXXXXXXXX$                                               ",
"                                                 ;$XXXXXXXXXXXXXXXXXXXXXXXXXXX$2                                                ",
"                                                   ;$XXXXXXXXXXXXXXXXXXXXXXXX2                                                  ",
"                                                     ;$XXXXXXXXXXXXXXXXXXX$;                                                    ",
"                                                       ;XXXXXXXXXXXXXXXX$;                                                      ",
"                                                         ;XXXXXXXXXXXX$;                                                        ",
"                                                           &XXXXXXXXX&                                                          ",
"                                                             &XXXXX&                                                            ",
"                                                               &X&                                                              ",
"                                                                                                                                ",
"                                                                                                                                ",
"                                                                                                                                ",
"                                                                                                                                ",
"                                                                                                                                ",
"                                                                                                                                ",
"                                                                                                                                "
};
