/* XPM */
static char *bitcoin__[] = {
/* columns rows colors chars-per-pixel */
"16 16 7 1 ",
"  c None",
". c black",
"X c #010101",
"o c #020202",
"O c gray1",
"+ c #040404",
"@ c gray2",
/* pixels */
"                ",
"       XXX      ",
"     XXXXXX     ",
"   XXXXXXXXXX   ",
" XXXXXX  XXXXXX ",
" XXXX       XXX ",
" @XX        @XX ",
" @XX        XXX ",
" XXX   XX   XXX ",
" XXX  XXXX  XXX ",
" @XXXX@XXX@XXXX ",
"  XXXXX  XXXXX  ",
"   XXX XXXXXX   ",
"      XXXX@     ",
"       XX       ",
"                "
};
