/* XPM */
static char *bitcoin__[] = {
/* columns rows colors chars-per-pixel */
"64 64 12 1 ",
"  c None",
". c black",
"X c #010101",
"o c #020202",
"O c gray1",
"+ c #040404",
"@ c gray2",
"# c #060606",
"$ c #070707",
"% c gray3",
"& c #090909",
"* c gray4",
/* pixels */
"                                                                ",
"                                                                ",
"                                                                ",
"                                                                ",
"                             #o  oo                             ",
"                           #ooo  ooo#                           ",
"                          ooooo  ooooo#                         ",
"                        ooooooo  ooooooo#                       ",
"                      ooooooooo  oooooooooo                     ",
"                    #oooooooooo  ooooooooooo#                   ",
"                   oooooooooooo  oooooooooooo                   ",
"                #  oooooooooooo  oooooooooooo  #                ",
"              #oo  oooooooooooo  oooooooooooo  ooo              ",
"            #oooo  oooooooooooo  oooooooooooo  oooo#            ",
"          #oooooo  oooooooooooo  oooooooooooo  oooooo#          ",
"         oooooooo  oooooooooooo  oooooooooooo  oooooooo#        ",
"       #ooooooooo  ooooooooooo    ooooooooooo  oooooooooo       ",
"     #ooooooooooo  ooooooooo        ooooooooo  oooooooooooo     ",
"     oooooooooooo  ooooooo           ##oooooo  oooooooooooo#    ",
"     oooooooooooo  ooooo#              #ooooo  ooooooooooooo    ",
"     oooooooooooo  ooo#                  #ooo  oooooooooooo#    ",
"     oooooooooooo  oo                      #o  oooooooooooo#    ",
"     oooooooooooo                              ooooooooooooo    ",
"     oooooooooooo                              oooooooooooo#    ",
"     oooooooooo#                                #ooooooooooo    ",
"     oooooooo#                                    #oooooooo#    ",
"     ooooooo   oo#                             #o   ooooooo#    ",
"     ooooo   #ooo#                             oooo   oooooo    ",
"     ooo   #ooooo#                             #ooooo   #oo#    ",
"     o   #ooooooo#                             ooooooo#   o#    ",
"       #ooooooooo#                             ooooooooo#       ",
"     *ooooooooooo#                             ooooooooooo#     ",
"     oooooooooooo#                             ooooooooooooo    ",
"     oooooooooooo#            #oo#             ooooooooooooo    ",
"     oooooooooooo#          #ooooooo           #oooooooooooo    ",
"     oooooooooooo#        #oooooooooo#         ooooooooooooo    ",
"     oooooooooooo#      #oooooooooooooo#       ooooooooooooo    ",
"     oooooooooooo#    *oooooooooooooooooo#     ooooooooooooo    ",
"     ooooooooooo#    ooooooooooooooooooooo#     oooooooooooo    ",
"     ooooooooo#      ooooooooooooooooooooo#      #oooooooooo    ",
"     ooooooo#    #     #oooooooooooooooo#     #    #oooooooo    ",
"     oooooo    oooo#     #ooooooooooooo     #oooo    #oooooo    ",
"     ooo#    #ooooooo#     #oooooooo#     #oooooooo    #oooo    ",
"     oo    #ooooooooooo#     oooooo      ooooooooooo#    #oo    ",
"         #ooooooooooooooo*     #o      oooooooooooooooo         ",
"       *ooooooooooooooooooo          ooooooooooooooooooo#       ",
"      #ooooooooooooooooooooo#      *oooooooooooooooooooooo      ",
"       #ooooooooooooooooooo#        #ooooooooooooooooooo#       ",
"         #ooooooooooooooo#     #o     #oooooooooooooooo         ",
"           #ooooooooooo#     #oooo#     #oooooooooooo*          ",
"             oooooooo#     #oooooooo#     #oooooooo#            ",
"              *oooo#     *oooooooooooo#     ooooo#              ",
"                ###     oooooooooooooooo#     ##                ",
"                      oooooooooooooooooooo#                     ",
"                     #ooooooooooooooooooooo*                    ",
"                      *oooooooooooooooooo#                      ",
"                        #ooooooooooooooo                        ",
"                          #ooooooooooo                          ",
"                            #oooooo#                            ",
"                              #ooo#                             ",
"                                *                               ",
"                                                                ",
"                                                                ",
"                                                                "
};
