/* XPM */
static char *bitcoin__[] = {
/* columns rows colors chars-per-pixel */
"32 32 9 1 ",
"  c None",
". c black",
"X c #010101",
"o c #020202",
"O c gray1",
"+ c #040404",
"@ c gray2",
"# c #060606",
"$ c #070707",
/* pixels */
"                                ",
"                                ",
"              @@@X              ",
"            XXXX@XXX            ",
"          @XXXX@XXXXXX          ",
"         @XXXXXXXXXXXXX         ",
"       XXXXXXXXX@XXXXXX@X       ",
"     XXXXXXXXXX@XXXXXXX@XXX     ",
"   XXXXXXXXXXXX  XXXXXX@XXXXX   ",
"  @XXXXXXXXX@      @XX@XXXXXXX  ",
"  @XXXXXXXX          X@@XXXXXX  ",
"  @XXXXX@               XXXXXX  ",
"  @XXXX@                @XXXXX  ",
"  @XXX X@              $X XXXX  ",
"  @@ XXXX              @XXX @@  ",
"   @XXXXX              @XXXXX   ",
"  @XXXXXX      X@      @XXXXXX  ",
"  @XXXXXX     XXXX@    @XXXXXX  ",
"  @XXXXXX   XXXXXXXX   @XXXXXX  ",
"  @XXXXX   XXXXXXXXXX   XXXXXX  ",
"  @XXX  @   XXXXXXX@   X  XXXX  ",
"  @X  @XXXX   XXXX   XXXXX  XX  ",
"    XXXXXXXXX      XXXXXXXXX    ",
"   @XXXXXXXXXX    XXXXXXXXXX@   ",
"     XXXXXXX@  XX   XXXXXXX     ",
"       XXXX  XXXXXX  XXXX       ",
"           @XXXXXXXX@           ",
"           XXXXXXXXXX           ",
"             XXXXXX@            ",
"              @XXX              ",
"                                ",
"                                "
};
