<?xml version="1.0" standalone="no"?>
<!DOCTYPE svg PUBLIC "-//W3C//DTD SVG 20010904//EN"
 "http://www.w3.org/TR/2001/REC-SVG-20010904/DTD/svg10.dtd">
<svg version="1.0" xmlns="http://www.w3.org/2000/svg"
 width="1412.000000pt" height="1402.000000pt" viewBox="0 0 1412.000000 1402.000000"
 preserveAspectRatio="xMidYMid meet">
<metadata>
Created by potrace 1.16, written by Peter Selinger 2001-2019
</metadata>
<g transform="translate(0.000000,1402.000000) scale(0.100000,-0.100000)"
fill="#000000" stroke="none">
<path d="M7190 11928 l0 -1393 268 -139 c147 -77 490 -256 762 -399 598 -314
1515 -793 1662 -869 59 -31 109 -53 112 -50 4 3 6 631 6 1397 l0 1391 -62 31
c-35 18 -133 69 -218 113 -85 45 -267 140 -405 212 -137 72 -290 152 -340 178
-1034 545 -1757 920 -1770 920 -13 0 -15 -178 -15 -1392z"/>
<path d="M6695 13149 c-82 -44 -242 -127 -355 -186 -113 -58 -209 -109 -215
-113 -5 -4 -95 -51 -200 -105 -104 -54 -217 -112 -250 -130 -81 -44 -254 -134
-470 -245 -99 -51 -315 -164 -480 -250 -165 -87 -354 -186 -420 -220 -66 -34
-130 -69 -142 -77 l-23 -13 0 -1365 c0 -751 2 -1365 4 -1365 3 0 186 95 421
220 50 26 149 78 220 115 72 37 157 82 190 100 33 18 143 75 245 128 102 53
516 269 920 481 l735 385 3 1360 c2 1292 1 1361 -15 1360 -10 0 -85 -36 -168
-80z"/>
<path d="M3810 11629 c-8 -5 -89 -48 -180 -95 -91 -47 -216 -113 -277 -145
-62 -32 -166 -87 -230 -120 -65 -34 -149 -78 -188 -99 -38 -21 -151 -79 -250
-130 -99 -51 -202 -105 -230 -120 -27 -15 -117 -62 -200 -105 -82 -43 -181
-95 -220 -115 -38 -21 -203 -106 -365 -190 -162 -84 -373 -193 -467 -243
l-173 -90 0 -1414 0 -1414 148 77 c81 42 179 94 217 114 80 43 242 127 430
225 72 37 171 89 220 115 50 26 279 147 510 267 231 121 578 303 770 403 193
101 391 205 440 231 l90 48 3 1406 c2 1334 1 1405 -15 1404 -10 0 -25 -4 -33
-10z"/>
<path d="M10352 10210 l3 -1401 315 -165 c173 -91 389 -204 480 -251 91 -48
282 -148 425 -223 143 -75 348 -183 455 -238 107 -56 404 -211 660 -345 256
-134 468 -241 473 -237 4 3 6 635 5 1404 l-3 1397 -330 172 c-181 95 -402 211
-490 256 -88 46 -196 103 -240 126 -44 24 -327 172 -630 330 -302 158 -563
295 -580 305 -16 10 -133 70 -260 135 -126 65 -234 122 -239 126 -6 5 -18 9
-28 9 -17 0 -18 -57 -16 -1400z"/>
<path d="M3695 8429 c-139 -74 -287 -152 -575 -302 -63 -33 -160 -83 -215
-112 -100 -52 -205 -107 -430 -225 -66 -35 -160 -84 -210 -110 -49 -26 -146
-77 -215 -112 -69 -36 -322 -168 -563 -293 l-437 -228 0 -1414 0 -1414 148 77
c81 42 179 94 217 114 39 21 171 90 295 155 124 64 275 143 335 175 183 96
928 485 1300 680 193 101 391 205 440 231 l90 48 3 1406 c2 1334 1 1405 -15
1404 -10 0 -85 -36 -168 -80z"/>
<path d="M10332 7068 l3 -1403 245 -128 c135 -70 418 -218 630 -329 450 -235
523 -273 850 -443 135 -70 290 -151 345 -180 55 -29 210 -110 345 -180 135
-70 278 -145 318 -166 l72 -38 0 1407 0 1407 -112 57 c-62 32 -180 93 -263
136 -82 44 -505 265 -940 492 -434 227 -846 441 -915 477 -121 64 -163 86
-431 227 -69 36 -131 66 -138 66 -8 0 -10 -354 -9 -1402z"/>
<path d="M6995 6891 c-27 -15 -237 -126 -465 -246 -228 -120 -446 -235 -485
-255 -38 -20 -126 -67 -195 -103 -817 -428 -1427 -750 -1433 -756 -5 -5 20
-23 55 -41 35 -18 108 -56 163 -85 340 -179 675 -355 770 -405 61 -32 279
-146 485 -255 206 -109 425 -223 485 -255 397 -208 672 -354 682 -362 8 -7 35
3 85 30 40 22 125 66 188 100 98 51 600 315 970 510 58 30 123 65 145 77 22
12 103 55 180 95 119 62 409 214 800 420 50 26 140 73 200 105 61 32 111 59
113 60 2 2 -154 85 -345 185 -317 167 -1471 774 -1688 890 -428 226 -615 320
-636 320 -13 -1 -46 -13 -74 -29z"/>
<path d="M10215 5164 c-44 -25 -145 -79 -225 -121 -80 -41 -149 -79 -155 -83
-5 -4 -86 -47 -180 -95 -142 -74 -389 -203 -930 -490 -44 -23 -267 -140 -495
-260 -565 -296 -582 -305 -578 -317 2 -5 35 -26 73 -47 138 -73 304 -161 555
-291 140 -73 363 -190 495 -260 132 -70 317 -167 410 -215 94 -48 202 -104
240 -125 39 -20 124 -65 190 -100 118 -62 343 -181 579 -306 l119 -63 61 33
c34 18 124 66 201 106 77 40 295 155 485 255 190 100 388 203 440 230 52 26
118 60 145 75 28 15 104 55 170 90 66 34 199 104 295 155 96 51 258 135 360
188 102 53 228 119 280 146 52 28 128 68 168 88 39 21 72 40 72 43 0 3 -55 34
-122 69 -68 35 -289 152 -493 259 -203 107 -419 220 -480 252 -60 32 -189 99
-285 150 -245 129 -350 184 -465 245 -212 111 -343 180 -732 386 -51 27 -98
49 -105 48 -7 -1 -49 -21 -93 -45z"/>
<path d="M3775 5167 c-33 -18 -123 -66 -200 -106 -77 -41 -291 -154 -475 -251
-184 -97 -398 -210 -475 -250 -77 -40 -171 -89 -210 -110 -38 -21 -137 -72
-220 -115 -156 -81 -792 -416 -927 -489 -43 -22 -78 -43 -78 -46 0 -5 309
-169 1045 -555 154 -81 325 -171 380 -200 55 -29 150 -78 210 -110 61 -32 182
-96 270 -143 88 -46 196 -104 240 -127 314 -166 504 -265 512 -265 5 0 67 31
138 68 72 38 193 101 270 142 77 40 181 94 230 120 50 26 259 137 465 245 206
109 416 219 465 245 50 26 137 72 195 103 58 30 193 101 300 157 107 56 247
129 310 163 237 124 290 152 290 157 0 5 -54 34 -410 221 -239 125 -787 413
-1150 604 -201 106 -428 225 -505 266 -77 40 -241 126 -365 191 -123 65 -229
118 -235 118 -5 -1 -37 -15 -70 -33z"/>
<path d="M6605 3258 c-269 -142 -573 -302 -675 -355 -102 -52 -189 -99 -195
-103 -5 -4 -82 -44 -170 -90 -88 -46 -277 -145 -420 -220 -143 -75 -323 -170
-400 -210 -232 -121 -286 -152 -283 -162 4 -11 -11 -3 703 -378 50 -26 137
-72 195 -102 460 -242 698 -367 835 -438 88 -46 192 -100 230 -120 39 -21 209
-111 378 -200 l309 -162 61 33 c34 18 89 47 122 64 33 18 256 135 495 260 524
275 1385 726 1530 803 175 93 363 192 408 214 23 12 42 25 42 28 0 5 -285 156
-855 456 -44 23 -199 104 -345 181 -146 77 -328 173 -405 213 -168 88 -823
432 -952 501 -51 27 -98 48 -105 48 -7 -1 -233 -118 -503 -261z"/>
</g>
</svg>
